<svg width="65" height="77" viewBox="0 0 65 77" fill="none" xmlns="http://www.w3.org/2000/svg">
<g id="balloon 2" clip-path="url(#clip0_327_154)">
<g id="Layer 2">
<g id="Layer 1">
<path id="Vector" d="M28.7653 70.5318C28.7228 70.5321 28.6818 70.5179 28.6514 70.4923C28.621 70.4668 28.6035 70.4319 28.6029 70.3954C28.5005 65.79 27.9408 63.2149 27.935 63.1892C27.931 63.1712 27.9312 63.1527 27.9355 63.1348C27.9398 63.1169 27.9482 63.0999 27.9602 63.0847C27.9721 63.0696 27.9875 63.0566 28.0053 63.0465C28.0231 63.0365 28.0431 63.0295 28.064 63.0261C28.0849 63.0227 28.1065 63.0228 28.1274 63.0265C28.1482 63.0302 28.1681 63.0374 28.1857 63.0477C28.2034 63.0579 28.2185 63.0711 28.2302 63.0864C28.2419 63.1017 28.25 63.1188 28.254 63.1368C28.2598 63.1625 28.8298 65.7583 28.9277 70.3895C28.9283 70.4265 28.9118 70.4623 28.8818 70.489C28.8518 70.5156 28.8108 70.531 28.7676 70.5318H28.7653Z" fill="white" stroke="#21409A" stroke-linecap="round" stroke-linejoin="round"/>
<path id="Vector_2" d="M30.5333 70.3717H30.5241C30.4811 70.3694 30.4409 70.3526 30.4122 70.3251C30.3835 70.2975 30.3687 70.2613 30.3709 70.2244C30.5678 67.1788 30.2051 63.0587 30.1555 62.8106C30.147 62.7766 30.1535 62.7411 30.1739 62.711C30.1942 62.6809 30.227 62.6585 30.2657 62.648C30.3043 62.6376 30.3462 62.64 30.3829 62.6547C30.4196 62.6695 30.4486 62.6954 30.4642 62.7276C30.5137 62.8383 30.896 67.1323 30.6945 70.2402C30.6921 70.2756 30.6742 70.3089 30.6442 70.3334C30.6143 70.3578 30.5746 70.3715 30.5333 70.3717Z" fill="white" stroke="#21409A" stroke-linecap="round" stroke-linejoin="round"/>
<path id="Vector_3" d="M32.575 70.1512C32.5319 70.1512 32.4906 70.1366 32.4602 70.1104C32.4297 70.0843 32.4126 70.0488 32.4126 70.0119V62.6574C32.4126 62.6203 32.4297 62.5848 32.4601 62.5585C32.4905 62.5322 32.5318 62.5173 32.575 62.517C32.6181 62.5173 32.6594 62.5322 32.6899 62.5585C32.7203 62.5848 32.7373 62.6203 32.7373 62.6574V70.0119C32.7373 70.0488 32.7202 70.0843 32.6898 70.1104C32.6593 70.1366 32.618 70.1512 32.575 70.1512Z" fill="white" stroke="#21409A" stroke-linecap="round" stroke-linejoin="round"/>
<path id="Vector_4" d="M34.5635 70.169C34.5241 70.169 34.4861 70.1567 34.4566 70.1343C34.4271 70.1119 34.4082 70.081 34.4034 70.0475C33.9785 67.2015 34.6395 62.772 34.7305 62.6435C34.7525 62.6147 34.7861 62.5938 34.8249 62.5849C34.8637 62.5759 34.905 62.5796 34.9409 62.5951C34.9767 62.6106 35.0047 62.6369 35.0194 62.669C35.0341 62.7011 35.0346 62.7367 35.0206 62.7691C34.9285 63.0656 34.3136 67.2549 34.7258 70.0119C34.7311 70.0485 34.7193 70.0855 34.693 70.1147C34.6667 70.144 34.628 70.1631 34.5854 70.1681L34.5635 70.169Z" fill="white" stroke="#21409A" stroke-linecap="round" stroke-linejoin="round"/>
<path id="Vector_5" d="M36.3993 70.1384C36.3582 70.1385 36.3185 70.1252 36.2884 70.1011C36.2582 70.0771 36.2398 70.0441 36.2369 70.0089C35.865 65.4825 36.511 62.7651 36.5179 62.7374C36.5268 62.7013 36.552 62.6696 36.5881 62.6494C36.6241 62.6292 36.6681 62.6221 36.7102 62.6297C36.7524 62.6373 36.7893 62.659 36.8128 62.6899C36.8364 62.7209 36.8446 62.7586 36.8358 62.7948C36.83 62.8215 36.1932 65.5053 36.5617 69.9891C36.5632 70.0074 36.5606 70.0257 36.5538 70.0431C36.5471 70.0605 36.5364 70.0765 36.5223 70.0903C36.5083 70.1041 36.4912 70.1154 36.4721 70.1235C36.4529 70.1315 36.4321 70.1363 36.4108 70.1374L36.3993 70.1384Z" fill="white" stroke="#21409A" stroke-linecap="round" stroke-linejoin="round"/>
<path id="Vector_6" d="M12.1538 6.09604C12.1538 6.09604 5.74524 6.21565 1.56499 16.9805C-2.61526 27.7453 3.65512 38.5082 11.5976 44.9671C19.5401 51.426 26.6453 61.5918 26.6453 61.5918C26.6453 61.5918 30.8244 61.83 27.4814 57.5251C24.1383 53.2201 -1.22184 25.9502 12.1538 6.09604Z" fill="#00AEEF" stroke="#21409A" stroke-linecap="round" stroke-linejoin="round"/>
<path id="Vector_7" d="M21.3502 2.62836C21.6415 2.27645 12.2941 2.14992 8.53188 11.1196C4.76965 20.0893 8.53188 31.5718 15.9158 42.3357C23.2998 53.0995 28.0374 60.7545 28.0374 60.7545C28.0374 60.7545 30.5467 62.7869 29.2915 57.7643C28.0363 52.7417 8.53188 18.056 21.3502 2.62836Z" fill="white" stroke="#21409A" stroke-linecap="round" stroke-linejoin="round"/>
<path id="Vector_8" d="M52.8645 6.09604C52.8645 6.09604 59.2743 6.21565 63.4522 16.9805C67.6302 27.7453 61.1974 37.5513 53.4208 44.9671C46.1013 51.9459 38.373 61.5918 38.373 61.5918C38.373 61.5918 34.1928 61.83 37.537 57.5251C40.8812 53.2201 66.2402 25.9502 52.8645 6.09604Z" fill="#00AEEF" stroke="#21409A" stroke-linecap="round" stroke-linejoin="round"/>
<path id="Vector_9" d="M43.668 2.62836C43.3766 2.27645 52.7252 2.14992 56.4874 11.1196C60.2496 20.0893 56.4874 31.5718 49.1023 42.3357C41.7172 53.0995 36.9807 60.7545 36.9807 60.7545C36.9807 60.7545 34.4726 62.7869 35.7266 57.7643C36.9807 52.7417 56.4874 18.056 43.668 2.62836Z" fill="white" stroke="#21409A" stroke-linecap="round" stroke-linejoin="round"/>
<path id="Vector_10" d="M29.8489 1.07365C29.8489 1.07365 19.5387 -1.91658 16.1945 10.4022C12.8503 22.721 17.1699 32.7681 21.0738 40.6584C24.9777 48.5486 29.2938 60.3929 29.2938 60.3929C29.2938 60.3929 31.802 62.5449 31.3839 58.7184C30.9659 54.8919 18.5633 12.3159 29.8489 1.07365Z" fill="#00AEEF" stroke="#21409A" stroke-linecap="round" stroke-linejoin="round"/>
<path id="Vector_11" d="M35.1696 1.07365C35.1696 1.07365 45.4797 -1.91658 48.8274 10.4022C52.175 22.721 47.8485 32.7681 43.947 40.6584C40.0454 48.5486 35.727 60.3929 35.727 60.3929C35.727 60.3929 33.2188 62.5449 33.6368 58.7184C34.0549 54.8919 46.4551 12.3159 35.1696 1.07365Z" fill="#00AEEF" stroke="#21409A" stroke-linecap="round" stroke-linejoin="round"/>
<path id="Vector_12" d="M33.1933 60.0328C33.1933 60.0328 31.5212 13.6313 33.89 0.355703C33.89 0.355703 23.7192 -2.2757 22.8832 16.3824C22.0471 35.0404 29.4322 45.565 30.8291 60.0358C30.8245 60.0328 31.9392 62.0691 33.1933 60.0328Z" fill="white" stroke="#21409A" stroke-linecap="round" stroke-linejoin="round"/>
<path id="Vector_13" d="M31.8251 60.0329C31.8251 60.0329 33.4972 13.6285 31.1284 0.352819C31.1284 0.352819 41.2992 -2.27858 42.1353 16.3795C42.9713 35.0375 35.5839 45.5651 34.1939 60.0329C34.1939 60.0329 33.0792 62.0692 31.8251 60.0329Z" fill="white" stroke="#21409A" stroke-linecap="round" stroke-linejoin="round"/>
<path id="Vector_14" d="M26.271 61.0797C26.271 61.0797 32.1694 58.4513 38.8233 61.0155C38.8233 61.0155 37.6129 62.865 37.2352 64.5533C37.2352 64.5533 31.7905 63.6765 27.8199 64.8776C27.5915 63.5382 27.0656 62.2489 26.271 61.0797Z" fill="white" stroke="#21409A" stroke-linecap="round" stroke-linejoin="round"/>
<path id="Vector_15" d="M27.5942 63.7418C27.5942 63.7418 31.6778 62.1839 37.4979 63.6113L37.1581 64.7154C37.1581 64.7154 31.8896 63.6993 27.8188 64.8776L27.5942 63.7418Z" fill="white" stroke="#21409A" stroke-linecap="round" stroke-linejoin="round"/>
<path id="Vector_16" d="M28.087 70.1582C28.087 70.1582 33.0676 69.2685 37.2144 70.0722C37.2144 70.0722 36.8252 71.6805 37.5818 73.8601C38.4179 76.2711 33.0008 77.3327 29.1234 76.1851C25.9807 74.8654 28.5211 71.8801 28.087 70.1582Z" fill="white" stroke="#21409A" stroke-linecap="round" stroke-linejoin="round"/>
<path id="Vector_17" d="M28.0873 70.1582C28.0873 70.1582 32.9343 69.0392 37.2147 70.0722C37.2147 70.0722 37.9828 70.5892 37.0811 71.1052C37.0811 71.1052 32.3666 70.2738 28.1541 71.3355C28.1541 71.3355 27.2846 70.7612 28.0873 70.1582Z" fill="white" stroke="#21409A" stroke-linecap="round" stroke-linejoin="round"/>
</g>
</g>
</g>
<defs>
<clipPath id="clip0_327_154">
<rect width="65" height="76.8158" fill="white" transform="translate(0 0.0305634)"/>
</clipPath>
</defs>
</svg>
