<svg width="126" height="150" viewBox="0 0 126 150" fill="none" xmlns="http://www.w3.org/2000/svg">
<g clip-path="url(#clip0_327_134)">
<path d="M55.7606 137.346C55.6781 137.347 55.5987 137.319 55.5397 137.269C55.4808 137.22 55.447 137.152 55.4459 137.081C55.2472 128.129 54.1623 123.123 54.1511 123.073C54.1433 123.038 54.1437 123.003 54.152 122.968C54.1604 122.933 54.1766 122.9 54.1998 122.87C54.2231 122.841 54.2528 122.816 54.2873 122.796C54.3219 122.777 54.3605 122.763 54.4011 122.756C54.4417 122.75 54.4835 122.75 54.524 122.757C54.5644 122.764 54.6029 122.778 54.6371 122.798C54.6713 122.818 54.7006 122.844 54.7233 122.874C54.746 122.903 54.7617 122.937 54.7695 122.972C54.7806 123.022 55.8856 128.067 56.0754 137.069C56.0766 137.141 56.0446 137.211 55.9865 137.263C55.9283 137.315 55.8488 137.345 55.7651 137.346H55.7606Z" fill="white" stroke="#21409A" stroke-linecap="round" stroke-linejoin="round"/>
<path d="M59.1871 137.035H59.1692C59.0859 137.03 59.008 136.998 58.9524 136.944C58.8969 136.891 58.8681 136.82 58.8724 136.749C59.2541 130.828 58.5509 122.82 58.4549 122.337C58.4383 122.271 58.4509 122.202 58.4904 122.144C58.5299 122.085 58.5934 122.042 58.6684 122.022C58.7434 122.001 58.8244 122.006 58.8956 122.035C58.9668 122.063 59.023 122.114 59.0532 122.176C59.1492 122.391 59.8903 130.738 59.4996 136.779C59.4951 136.848 59.4602 136.913 59.4022 136.96C59.3441 137.008 59.2672 137.034 59.1871 137.035Z" fill="white" stroke="#21409A" stroke-linecap="round" stroke-linejoin="round"/>
<path d="M63.1448 136.606C63.0614 136.606 62.9813 136.578 62.9223 136.527C62.8632 136.476 62.8301 136.407 62.8301 136.335V122.04C62.8301 121.968 62.8632 121.898 62.9221 121.847C62.9811 121.796 63.0612 121.767 63.1448 121.767C63.2285 121.767 63.3086 121.796 63.3675 121.847C63.4265 121.898 63.4596 121.968 63.4596 122.04V136.335C63.4596 136.407 63.4264 136.476 63.3674 136.527C63.3084 136.578 63.2283 136.606 63.1448 136.606Z" fill="white" stroke="#21409A" stroke-linecap="round" stroke-linejoin="round"/>
<path d="M67.0005 136.641C66.9242 136.641 66.8505 136.617 66.7933 136.573C66.7361 136.53 66.6995 136.47 66.6902 136.405C65.8665 130.873 67.1478 122.263 67.3242 122.013C67.3668 121.957 67.432 121.916 67.5072 121.899C67.5825 121.881 67.6625 121.888 67.732 121.919C67.8016 121.949 67.8558 122 67.8843 122.062C67.9129 122.125 67.9137 122.194 67.8867 122.257C67.7081 122.833 66.5161 130.976 67.3152 136.335C67.3254 136.407 67.3025 136.479 67.2515 136.535C67.2005 136.592 67.1256 136.629 67.0429 136.639L67.0005 136.641Z" fill="white" stroke="#21409A" stroke-linecap="round" stroke-linejoin="round"/>
<path d="M70.5584 136.581C70.4786 136.582 70.4018 136.556 70.3433 136.509C70.2849 136.462 70.2493 136.398 70.2436 136.33C69.5226 127.531 70.7749 122.249 70.7883 122.195C70.8055 122.125 70.8544 122.063 70.9243 122.024C70.9942 121.985 71.0794 121.971 71.1611 121.986C71.2428 122.001 71.3143 122.043 71.36 122.103C71.4056 122.163 71.4216 122.236 71.4044 122.307C71.3932 122.359 70.1588 127.575 70.8731 136.291C70.8762 136.327 70.871 136.362 70.8579 136.396C70.8448 136.43 70.824 136.461 70.7968 136.488C70.7696 136.515 70.7365 136.537 70.6994 136.552C70.6623 136.568 70.622 136.577 70.5807 136.579L70.5584 136.581Z" fill="white" stroke="#21409A" stroke-linecap="round" stroke-linejoin="round"/>
<path d="M23.5597 12.0946C23.5597 12.0946 11.1369 12.3271 3.03367 33.252C-5.06958 54.1769 7.0853 75.0979 22.4815 87.6529C37.8777 100.208 51.651 119.968 51.651 119.968C51.651 119.968 59.752 120.431 53.2716 112.063C46.7912 103.695 -2.3685 50.6875 23.5597 12.0946Z" fill="#00AEEF" stroke="#21409A" stroke-linecap="round" stroke-linejoin="round"/>
<path d="M41.3869 5.35401C41.9517 4.66996 23.8321 4.42402 16.5392 21.8595C9.24624 39.295 16.5392 61.6149 30.8527 82.5379C45.1662 103.461 54.3499 118.341 54.3499 118.341C54.3499 118.341 59.2141 122.291 56.7809 112.528C54.3476 102.765 16.5392 35.3425 41.3869 5.35401Z" fill="white" stroke="#21409A" stroke-linecap="round" stroke-linejoin="round"/>
<path d="M102.476 12.0946C102.476 12.0946 114.901 12.3271 123 33.252C131.099 54.1769 118.629 73.2379 103.554 87.6529C89.3658 101.218 74.3848 119.968 74.3848 119.968C74.3848 119.968 66.2815 120.431 72.7641 112.063C79.2468 103.695 128.404 50.6875 102.476 12.0946Z" fill="#00AEEF" stroke="#21409A" stroke-linecap="round" stroke-linejoin="round"/>
<path d="M84.6488 5.35401C84.0841 4.66996 102.206 4.42402 109.499 21.8595C116.792 39.295 109.499 61.6149 95.1831 82.5379C80.8673 103.461 71.6859 118.341 71.6859 118.341C71.6859 118.341 66.8239 122.291 69.2549 112.528C71.6859 102.765 109.499 35.3425 84.6488 5.35401Z" fill="white" stroke="#21409A" stroke-linecap="round" stroke-linejoin="round"/>
<path d="M57.8614 2.33153C57.8614 2.33153 37.8756 -3.48095 31.393 20.4645C24.9104 44.41 33.2838 63.9399 40.8513 79.2771C48.4188 94.6144 56.7855 117.638 56.7855 117.638C56.7855 117.638 61.6474 121.821 60.8371 114.383C60.0268 106.945 35.9849 24.1845 57.8614 2.33153Z" fill="#00AEEF" stroke="#21409A" stroke-linecap="round" stroke-linejoin="round"/>
<path d="M68.1746 2.33153C68.1746 2.33153 88.1604 -3.48095 94.6497 20.4645C101.139 44.41 92.7522 63.9399 85.1892 79.2771C77.6262 94.6144 69.255 117.638 69.255 117.638C69.255 117.638 64.3931 121.821 65.2034 114.383C66.0137 106.945 90.0511 24.1845 68.1746 2.33153Z" fill="#00AEEF" stroke="#21409A" stroke-linecap="round" stroke-linejoin="round"/>
<path d="M64.3437 116.938C64.3437 116.938 61.1025 26.7418 65.6943 0.936382C65.6943 0.936382 45.9786 -4.17859 44.358 32.0893C42.7373 68.3572 57.0531 88.8152 59.7608 116.944C59.7519 116.938 61.9128 120.896 64.3437 116.938Z" fill="white" stroke="#21409A" stroke-linecap="round" stroke-linejoin="round"/>
<path d="M61.6918 116.938C61.6918 116.938 64.9332 26.7362 60.3413 0.930767C60.3413 0.930767 80.057 -4.18421 81.6776 32.0837C83.2983 68.3516 68.9781 88.8154 66.2837 116.938C66.2837 116.938 64.1228 120.896 61.6918 116.938Z" fill="white" stroke="#21409A" stroke-linecap="round" stroke-linejoin="round"/>
<path d="M50.9253 118.973C50.9253 118.973 62.3591 113.864 75.2574 118.848C75.2574 118.848 72.9112 122.443 72.179 125.725C72.179 125.725 61.6247 124.021 53.9277 126.355C53.4849 123.752 52.4657 121.246 50.9253 118.973Z" fill="white" stroke="#21409A" stroke-linecap="round" stroke-linejoin="round"/>
<path d="M53.4902 124.147C53.4902 124.147 61.406 121.119 72.688 123.894L72.0295 126.04C72.0295 126.04 61.8167 124.065 53.9255 126.355L53.4902 124.147Z" fill="white" stroke="#21409A" stroke-linecap="round" stroke-linejoin="round"/>
<path d="M54.4456 136.62C54.4456 136.62 64.1003 134.89 72.1388 136.453C72.1388 136.453 71.3843 139.579 72.8509 143.816C74.4716 148.502 63.9708 150.566 56.4547 148.335C50.3627 145.77 55.2872 139.967 54.4456 136.62Z" fill="white" stroke="#21409A" stroke-linecap="round" stroke-linejoin="round"/>
<path d="M54.4456 136.62C54.4456 136.62 63.8414 134.445 72.1388 136.453C72.1388 136.453 73.6278 137.458 71.8799 138.461C71.8799 138.461 62.7408 136.845 54.5751 138.908C54.5751 138.908 52.8897 137.792 54.4456 136.62Z" fill="white" stroke="#21409A" stroke-linecap="round" stroke-linejoin="round"/>
</g>
<defs>
<clipPath id="clip0_327_134">
<rect width="126" height="149.316" fill="white" transform="translate(0 0.304367)"/>
</clipPath>
</defs>
</svg>
