<svg width="44" height="36" viewBox="0 0 44 36" fill="none" xmlns="http://www.w3.org/2000/svg">
<path d="M10.496 16.64C12.9707 16.896 14.976 17.8773 16.512 19.584C18.1333 21.2053 18.944 23.2533 18.944 25.728C18.944 28.4587 18.048 30.7627 16.256 32.64C14.5493 34.432 12.416 35.328 9.856 35.328C6.95467 35.328 4.56533 34.2613 2.688 32.128C0.896 29.9947 0 26.88 0 22.784C0 14.7627 2.816 7.72267 8.448 1.664C9.472 0.554667 10.6667 0 12.032 0C13.2267 0 14.2933 0.469332 15.232 1.408C16.256 2.26133 16.768 3.28533 16.768 4.48C16.768 5.504 16.3413 6.48533 15.488 7.424C12.928 10.1547 11.264 13.2267 10.496 16.64ZM35.072 16.64C37.5467 16.896 39.552 17.8773 41.088 19.584C42.7093 21.2053 43.52 23.2533 43.52 25.728C43.52 28.4587 42.624 30.7627 40.832 32.64C39.1253 34.432 36.992 35.328 34.432 35.328C31.5307 35.328 29.1413 34.2613 27.264 32.128C25.472 29.9947 24.576 26.88 24.576 22.784C24.576 14.7627 27.392 7.72267 33.024 1.664C34.048 0.554667 35.2427 0 36.608 0C37.8027 0 38.8693 0.469332 39.808 1.408C40.832 2.26133 41.344 3.28533 41.344 4.48C41.344 5.504 40.9173 6.48533 40.064 7.424C37.504 10.1547 35.84 13.2267 35.072 16.64Z" fill="#00AEEF"/>
</svg>
