<svg width="100" height="55" viewBox="0 0 100 55" fill="none" xmlns="http://www.w3.org/2000/svg">
<g id="Layer 2">
<path id="Vector" d="M60.7652 53.5851C59.7054 53.5829 58.6473 53.5134 57.5993 53.3772C47.9478 52.1488 45.0946 48.7277 44.2523 46.7709C42.6377 48.3649 39.0379 51.152 33.6201 51.1535C32.8067 51.1524 31.995 51.0902 31.194 50.9677C23.9431 49.872 22.2858 45.2063 21.9116 43.3571C20.1834 43.6963 18.4166 43.868 16.6442 43.8688C12.2363 43.8688 6.25642 42.7333 2.8052 37.3229C0.274876 33.3621 0.413267 28.5917 3.1657 24.5674C5.49442 21.1596 9.31468 19.0449 13.1264 19.0449C13.5085 19.0443 13.8903 19.065 14.2694 19.1069C14.8554 17.4848 17.0611 13.0609 23.6885 13.0609C24.6813 13.0665 25.6712 13.1549 26.6442 13.3249C27.2046 10.7413 30.0903 1.77855 43.0871 1.41726C43.41 1.39957 43.7227 1.39957 44.0285 1.39957C54.7836 1.39957 58.9029 6.79228 59.9929 8.62524C62.3581 7.79991 64.8809 7.36282 67.4319 7.33641C71.0471 7.33641 74.1446 8.32441 76.6357 10.2724C82.1645 14.596 82.2567 18.924 81.9816 20.754C82.4635 20.7172 83.0956 20.6862 83.8354 20.6862C87.056 20.6862 93.0068 21.3173 96.6767 25.5421C99.2907 28.5489 99.4906 32.871 97.2012 36.823C95.1629 40.3444 91.6314 42.5593 87.9478 42.6419C87.2371 43.6742 84.7905 46.532 79.5914 46.532C78.1193 46.517 76.6577 46.3152 75.2535 45.9333C74.2044 47.7574 70.1211 53.5851 60.7652 53.5851Z" fill="white" stroke="#21409A" stroke-linecap="round" stroke-linejoin="round"/>
<path id="Vector_2" d="M27.2423 14.0681C27.2423 14.0681 28.4605 2.44065 43.1179 2.03218C56.4171 1.66205 59.6342 9.43923 59.6342 9.43923C59.6342 9.43923 69.2874 5.36484 76.154 10.734C83.0205 16.1031 81.0882 21.4737 81.0882 21.4737C81.0882 21.4737 90.9549 19.999 96.1027 25.9167C101.25 31.8344 95.4603 42.2099 87.5225 42.0255C87.5225 42.0255 84.3053 47.9506 74.8657 45.1739C74.8657 45.1739 70.7909 54.4316 57.7053 52.7638C44.6197 51.0959 44.618 45.3582 44.618 45.3582C44.618 45.3582 39.8991 51.6534 31.3189 50.3572C22.7386 49.061 22.5234 42.5815 22.5234 42.5815C22.5234 42.5815 9.22251 46.0999 3.43061 37.0265C-1.90853 28.6551 6.22063 18.3253 14.8008 19.8088C14.8008 19.8088 16.5162 11.8458 27.2423 14.0681Z" fill="white" stroke="#21409A" stroke-linecap="round" stroke-linejoin="round"/>
</g>
</svg>
