<svg width="100" height="54" viewBox="0 0 100 54" fill="none" xmlns="http://www.w3.org/2000/svg">
<g id="Layer 1">
<path id="Vector" d="M60.7652 53.0201C59.7054 53.0179 58.6473 52.9484 57.5993 52.8122C47.9478 51.5838 45.0946 48.1627 44.2523 46.2059C42.6377 47.7999 39.0379 50.587 33.6201 50.5885C32.8067 50.5874 31.995 50.5252 31.194 50.4027C23.9431 49.307 22.2858 44.6413 21.9116 42.7921C20.1834 43.1313 18.4166 43.303 16.6442 43.3038C12.2363 43.3038 6.25642 42.1683 2.8052 36.7579C0.274876 32.7971 0.413267 28.0267 3.1657 24.0024C5.49442 20.5946 9.31468 18.4799 13.1264 18.4799C13.5085 18.4793 13.8903 18.5 14.2694 18.5419C14.8554 16.9198 17.0611 12.4959 23.6885 12.4959C24.6813 12.5015 25.6712 12.5899 26.6442 12.7599C27.2046 10.1763 30.0903 1.21354 43.0871 0.85226C43.41 0.834564 43.7227 0.834564 44.0285 0.834564C54.7836 0.834564 58.9029 6.22727 59.9929 8.06023C62.3581 7.23491 64.8809 6.79782 67.4319 6.77141C71.0471 6.77141 74.1446 7.75941 76.6357 9.70739C82.1645 14.031 82.2567 18.359 81.9816 20.189C82.4635 20.1522 83.0956 20.1212 83.8354 20.1212C87.056 20.1212 93.0068 20.7523 96.6767 24.9771C99.2907 27.9839 99.4906 32.306 97.2012 36.258C95.1629 39.7794 91.6314 41.9943 87.9478 42.0769C87.2371 43.1092 84.7905 45.967 79.5914 45.967C78.1193 45.952 76.6577 45.7502 75.2535 45.3683C74.2044 47.1924 70.1211 53.0201 60.7652 53.0201Z" fill="white" stroke="#21409A" stroke-linecap="round" stroke-linejoin="round"/>
<path id="Vector_2" d="M27.2423 13.5031C27.2423 13.5031 28.4605 1.87567 43.1179 1.4672C56.4171 1.09706 59.6342 8.87424 59.6342 8.87424C59.6342 8.87424 69.2874 4.79985 76.154 10.169C83.0205 15.5381 81.0882 20.9087 81.0882 20.9087C81.0882 20.9087 90.9549 19.434 96.1027 25.3517C101.25 31.2694 95.4603 41.6449 87.5225 41.4605C87.5225 41.4605 84.3053 47.3856 74.8657 44.6089C74.8657 44.6089 70.7909 53.8666 57.7053 52.1988C44.6197 50.531 44.618 44.7932 44.618 44.7932C44.618 44.7932 39.8991 51.0884 31.3189 49.7922C22.7386 48.496 22.5234 42.0165 22.5234 42.0165C22.5234 42.0165 9.22251 45.5349 3.43061 36.4616C-1.90853 28.0901 6.22063 17.7603 14.8008 19.2438C14.8008 19.2438 16.5162 11.2808 27.2423 13.5031Z" fill="white" stroke="#21409A" stroke-linecap="round" stroke-linejoin="round"/>
</g>
</svg>
