<svg width="208" height="60" viewBox="0 0 208 60" fill="none" xmlns="http://www.w3.org/2000/svg">
<path d="M91.6695 33.4169C92.1099 33.8558 92.2987 34.2947 92.2987 34.8589C92.2987 35.4232 92.1099 35.9248 91.6695 36.301C91.2291 36.6771 90.7258 36.8652 90.0966 36.8652H78.1425C77.5133 36.8652 77.01 36.6771 76.5696 36.2383C76.1292 35.7994 75.9404 35.2978 75.9404 34.6709V14.232C75.9404 13.605 76.1292 13.1035 76.5696 12.6646C77.01 12.2257 77.5133 12.0376 78.1425 12.0376H90.0966C90.7258 12.0376 91.2291 12.2257 91.6695 12.6019C92.1099 12.9781 92.2987 13.4796 92.2987 14.1066C92.2987 14.6709 92.1099 15.1724 91.6695 15.5486C91.292 15.9248 90.7258 16.1129 90.0966 16.1129H80.4704V22.1317H88.5237C89.1529 22.1317 89.6562 22.3198 90.0966 22.6959C90.537 23.0721 90.7258 23.5737 90.7258 24.2006C90.7258 24.7649 90.537 25.2665 90.0966 25.6426C89.7191 26.0188 89.1529 26.2069 88.5237 26.2069H80.4704V32.79H90.0966C90.7258 32.79 91.292 32.9781 91.6695 33.4169Z" fill="#4499D4"/>
<path d="M111.929 11.2226C112.306 11.5987 112.558 12.163 112.558 12.79V34.7335C112.558 35.3605 112.369 35.8621 111.929 36.3009C111.488 36.7398 110.985 36.9279 110.419 36.9279C109.79 36.9279 109.286 36.7398 108.909 36.3009C108.531 35.9248 108.28 35.3605 108.28 34.7962C107.713 35.4859 106.895 36.0502 105.889 36.5517C104.882 37.0533 103.812 37.3041 102.68 37.3041C101.044 37.3041 99.5341 36.8652 98.2129 36.0502C96.8916 35.2351 95.8221 34.0439 95.0671 32.5392C94.3121 31.0345 93.9346 29.3417 93.9346 27.4608C93.9346 25.5799 94.3121 23.8871 95.0671 22.3824C95.8221 20.8777 96.8916 19.6865 98.2129 18.8715C99.5341 18.0564 100.981 17.6176 102.554 17.6176C103.687 17.6176 104.756 17.8056 105.763 18.2445C106.77 18.6834 107.587 19.185 108.28 19.8119V12.79C108.28 12.163 108.468 11.6614 108.909 11.2226C109.286 10.7837 109.852 10.5956 110.419 10.5956C110.985 10.5956 111.488 10.8464 111.929 11.2226ZM106.958 31.6614C107.902 30.5329 108.405 29.1536 108.405 27.3981C108.405 25.7053 107.902 24.2633 106.958 23.1348C106.015 22.0063 104.756 21.442 103.183 21.442C101.673 21.442 100.415 22.0063 99.4712 23.1348C98.5275 24.2633 98.0241 25.7053 98.0241 27.3981C98.0241 29.0909 98.5275 30.5329 99.4712 31.6614C100.415 32.79 101.673 33.3542 103.246 33.3542C104.756 33.3542 106.015 32.79 106.958 31.6614Z" fill="#4499D4"/>
<path d="M116.333 27.5235C115.892 27.1473 115.704 26.5831 115.704 26.0188C115.704 25.4545 115.892 24.953 116.333 24.5141C116.773 24.1379 117.277 23.8871 117.906 23.8871H124.071C124.701 23.8871 125.204 24.0752 125.644 24.5141C126.085 24.953 126.274 25.4545 126.274 26.0815C126.274 26.6458 126.085 27.1473 125.644 27.5235C125.204 27.8997 124.701 28.0878 124.071 28.0878H117.906C117.277 28.0878 116.773 27.8997 116.333 27.5235Z" fill="#4499D4"/>
<path d="M149.49 12.6646C149.867 13.0408 150.119 13.605 150.119 14.232V34.7336C150.119 35.3605 149.93 35.8621 149.49 36.301C149.049 36.7398 148.546 36.9279 147.854 36.9279C147.288 36.9279 146.721 36.7398 146.344 36.301C145.904 35.8621 145.715 35.3605 145.715 34.7336V26.4577H134.327V34.7336C134.327 35.3605 134.075 35.8621 133.635 36.301C133.194 36.7398 132.691 36.9279 132.062 36.9279C131.433 36.9279 130.867 36.7398 130.489 36.301C130.049 35.8621 129.86 35.3605 129.86 34.7336V14.232C129.86 13.605 130.049 13.1035 130.489 12.6646C130.929 12.2257 131.433 12.0376 132.125 12.0376C132.691 12.0376 133.257 12.2257 133.635 12.6646C134.075 13.1035 134.264 13.605 134.264 14.232V22.3825H145.652V14.232C145.652 13.605 145.904 13.1035 146.344 12.6646C146.784 12.2257 147.288 12.0376 147.917 12.0376C148.546 12.0376 149.049 12.2257 149.49 12.6646Z" fill="#4499D4"/>
<path d="M171.196 32.4765C170.315 33.9812 169.182 35.1724 167.672 35.9875C166.162 36.8025 164.527 37.2414 162.765 37.2414C160.94 37.2414 159.304 36.8025 157.857 35.9875C156.41 35.1724 155.215 33.9812 154.397 32.4765C153.516 30.9718 153.139 29.279 153.139 27.3981C153.139 25.5173 153.579 23.8245 154.397 22.3198C155.278 20.8151 156.41 19.6238 157.857 18.8088C159.304 17.9937 160.94 17.5549 162.765 17.5549C164.527 17.5549 166.162 17.9937 167.672 18.8088C169.182 19.6238 170.315 20.8151 171.196 22.3198C172.077 23.8245 172.454 25.5173 172.454 27.3981C172.454 29.279 172.077 30.9718 171.196 32.4765ZM167.484 24.326C166.98 23.3856 166.351 22.6959 165.533 22.1944C164.715 21.6928 163.834 21.442 162.828 21.442C161.821 21.442 160.94 21.6928 160.122 22.1944C159.304 22.6959 158.675 23.3856 158.172 24.326C157.669 25.2665 157.417 26.2696 157.417 27.4608C157.417 28.5894 157.669 29.6552 158.172 30.5329C158.675 31.4107 159.304 32.1003 160.122 32.6019C160.94 33.1035 161.821 33.3542 162.828 33.3542C163.834 33.3542 164.715 33.1035 165.533 32.6019C166.351 32.1003 166.98 31.4107 167.484 30.5329C167.987 29.6552 168.239 28.5894 168.239 27.4608C168.176 26.2696 167.987 25.2038 167.484 24.326Z" fill="#4499D4"/>
<path d="M188.309 18.4953C189.568 19.1223 190.134 19.9373 190.134 21.0031C190.134 21.5047 190.008 22.0063 189.693 22.3825C189.379 22.7586 189.001 22.9467 188.498 22.9467C188.121 22.9467 187.806 22.884 187.554 22.7586C187.303 22.6332 187.114 22.5078 186.862 22.3198C186.611 22.1317 186.422 22.0063 186.233 21.8809C185.981 21.7555 185.667 21.6301 185.163 21.5674C184.723 21.442 184.346 21.442 184.031 21.442C182.269 21.442 180.885 22.0063 179.878 23.0721C178.872 24.2006 178.369 25.5799 178.369 27.3981C178.369 29.0909 178.872 30.5329 179.878 31.6615C180.885 32.79 182.206 33.3542 183.779 33.3542C184.912 33.3542 185.793 33.2289 186.359 32.9154C186.485 32.8527 186.673 32.7273 186.925 32.5392C187.177 32.3511 187.428 32.2257 187.617 32.1003C187.806 31.9749 188.121 31.9749 188.372 31.9749C188.938 31.9749 189.442 32.163 189.756 32.5392C190.071 32.9154 190.26 33.4169 190.26 33.9812C190.26 34.5455 189.945 35.1097 189.253 35.5486C188.561 36.0502 187.68 36.4263 186.611 36.7398C185.541 37.0533 184.346 37.1787 183.15 37.1787C181.326 37.1787 179.69 36.7398 178.306 35.9248C176.921 35.047 175.852 33.9185 175.097 32.4138C174.342 30.9091 173.964 29.2163 173.964 27.3981C173.964 25.4546 174.342 23.7618 175.16 22.3198C175.978 20.8151 177.047 19.6865 178.494 18.8088C179.941 17.9937 181.514 17.5549 183.339 17.5549C185.478 17.5549 187.114 17.8684 188.309 18.4953Z" fill="#4499D4"/>
<path d="M80.7218 41.6928C80.8476 41.8182 80.8476 41.9436 80.8476 42.069C80.8476 42.1944 80.7847 42.3198 80.7218 42.4452C80.596 42.5078 80.4701 42.5705 80.3443 42.5705H78.8972V47.2727C78.8972 47.3981 78.8343 47.5862 78.7085 47.6489C78.5826 47.7743 78.4568 47.837 78.268 47.837C78.0793 47.837 77.9535 47.7743 77.8276 47.6489C77.7018 47.5235 77.6389 47.3981 77.6389 47.2727V42.5705H76.1918C76.0031 42.5705 75.8772 42.5078 75.8143 42.4452C75.6885 42.3198 75.6885 42.1944 75.6885 42.069C75.6885 41.9436 75.7514 41.8182 75.8772 41.6928C76.0031 41.5674 76.1289 41.5674 76.2547 41.5674H80.2814C80.4701 41.5047 80.596 41.5674 80.7218 41.6928Z" fill="#233A74"/>
<path d="M88.7124 47.3354C88.7124 47.4608 88.6494 47.6489 88.5865 47.7116C88.4607 47.837 88.3978 47.837 88.209 47.837C88.0832 47.837 88.0203 47.7743 87.8944 47.7116C87.8315 47.6489 87.7686 47.5862 87.7057 47.4608L87.2653 46.395H84.5599L84.1194 47.5235C84.0565 47.6489 83.9936 47.7116 83.9307 47.7743C83.8678 47.837 83.7419 47.8997 83.6161 47.8997C83.4903 47.8997 83.3645 47.837 83.2386 47.7743C83.1757 47.7116 83.1128 47.5862 83.1128 47.4608C83.1128 47.3981 83.1128 47.3354 83.1128 47.2727L85.3778 41.8809C85.4407 41.7555 85.5036 41.6928 85.5665 41.6301C85.6294 41.5674 85.7553 41.5674 85.8811 41.5674C86.0069 41.5674 86.0699 41.5674 86.1957 41.6928C86.3215 41.8182 86.3844 41.8182 86.3844 41.9436L88.5865 47.21C88.7124 47.21 88.7124 47.2727 88.7124 47.3354ZM85.0003 45.3919H86.8249L85.944 43.2602L85.0003 45.3919Z" fill="#233A74"/>
<path d="M96.7652 47.0846C96.7652 47.1473 96.8282 47.21 96.8282 47.2727C96.8282 47.4608 96.7652 47.5862 96.6394 47.6489C96.5136 47.7743 96.3877 47.837 96.199 47.837C96.1361 47.837 96.0732 47.837 95.9473 47.7743C95.8844 47.7116 95.8215 47.7116 95.7586 47.6489L93.8082 45.0784L92.9273 45.8934V47.3354C92.9273 47.5235 92.8644 47.6489 92.7386 47.7116C92.6128 47.837 92.4869 47.837 92.2982 47.837C92.1094 47.837 91.9836 47.7743 91.9207 47.6489C91.7949 47.5235 91.7319 47.3981 91.7319 47.2727V42.069C91.7319 41.9436 91.7949 41.7555 91.9207 41.6928C92.0465 41.5674 92.1723 41.5047 92.3611 41.5047C92.5498 41.5047 92.6757 41.5674 92.7386 41.6301C92.8644 41.7555 92.8644 41.8809 92.8644 42.0063V44.5141L95.7586 41.6928C95.8844 41.5674 96.0732 41.5047 96.199 41.5047C96.3248 41.5047 96.4507 41.5674 96.5765 41.6928C96.7023 41.8182 96.7023 41.9436 96.7023 42.069C96.7023 42.1944 96.6394 42.3197 96.5136 42.4451L94.5632 44.326L96.5765 46.9592C96.7023 46.9592 96.7652 47.0219 96.7652 47.0846Z" fill="#233A74"/>
<path d="M104.064 46.9592C104.19 47.0846 104.253 47.21 104.253 47.3354C104.253 47.4608 104.19 47.5862 104.064 47.7116C103.938 47.837 103.812 47.837 103.686 47.837H100.666C100.541 47.837 100.352 47.7743 100.289 47.6489C100.163 47.5235 100.1 47.3981 100.1 47.2727V42.069C100.1 41.9436 100.163 41.7555 100.289 41.6928C100.415 41.5674 100.541 41.5047 100.666 41.5047H103.686C103.812 41.5047 104.001 41.5674 104.064 41.6301C104.127 41.6928 104.253 41.8809 104.253 42.0063C104.253 42.1317 104.19 42.2571 104.127 42.3824C104.001 42.4451 103.875 42.5078 103.749 42.5078H101.296V44.0125H103.309C103.435 44.0125 103.623 44.0752 103.686 44.1379C103.812 44.2633 103.875 44.3887 103.875 44.5141C103.875 44.6395 103.812 44.7649 103.749 44.8903C103.686 45.0157 103.498 45.0157 103.372 45.0157H101.358V46.7085H103.812C103.812 46.7712 103.938 46.8339 104.064 46.9592Z" fill="#233A74"/>
<path d="M108.468 47.7743C108.153 47.6489 107.839 47.4608 107.524 47.21C107.335 47.0846 107.272 46.8966 107.272 46.7085C107.272 46.5831 107.335 46.4577 107.398 46.3323C107.524 46.2069 107.65 46.1442 107.776 46.1442C107.902 46.1442 107.965 46.2069 108.09 46.2696C108.342 46.4577 108.594 46.5831 108.782 46.7085C108.971 46.8339 109.286 46.8339 109.6 46.8339C109.915 46.8339 110.23 46.7712 110.481 46.5831C110.733 46.395 110.859 46.2696 110.859 46.0188C110.859 45.768 110.733 45.5172 110.481 45.3919C110.23 45.2665 109.852 45.1411 109.349 45.0157C108.027 44.8276 107.398 44.2006 107.398 43.1975C107.398 42.8213 107.524 42.5078 107.713 42.1944C107.902 41.9436 108.153 41.6928 108.531 41.5674C108.845 41.442 109.286 41.3166 109.663 41.3166C110.041 41.3166 110.418 41.3793 110.733 41.5047C111.047 41.6301 111.362 41.7555 111.551 41.9436C111.74 42.069 111.802 42.2571 111.802 42.4451C111.802 42.5705 111.74 42.6959 111.677 42.8213C111.551 42.9467 111.425 43.0094 111.299 43.0094C111.236 43.0094 111.11 43.0094 111.047 42.9467C110.922 42.8213 110.67 42.6959 110.418 42.5705C110.167 42.4451 109.915 42.3824 109.663 42.3824C109.286 42.3824 108.971 42.4451 108.782 42.5705C108.594 42.6959 108.468 42.884 108.468 43.1348C108.468 43.3856 108.594 43.5737 108.782 43.6991C108.971 43.8245 109.349 43.9498 109.789 44.0125C110.292 44.0752 110.733 44.2006 111.047 44.3887C111.362 44.5141 111.614 44.7022 111.74 44.953C111.865 45.2038 111.991 45.5172 111.991 45.8934C111.991 46.2696 111.865 46.5831 111.677 46.8966C111.488 47.21 111.173 47.3981 110.796 47.5235C110.418 47.6489 110.041 47.7743 109.663 47.7743C109.223 47.8997 108.845 47.837 108.468 47.7743Z" fill="#233A74"/>
<path d="M124.7 42.3825L122.813 45.0784V47.2727C122.813 47.3981 122.75 47.5862 122.687 47.6489C122.561 47.7743 122.435 47.837 122.309 47.837C122.184 47.837 122.058 47.7743 121.932 47.6489C121.806 47.5235 121.743 47.3981 121.743 47.2727V44.953L119.856 42.4452C119.73 42.3198 119.667 42.1317 119.667 42.0063C119.667 41.8809 119.73 41.6928 119.856 41.6301C119.982 41.5047 120.107 41.442 120.233 41.442C120.422 41.442 120.548 41.5047 120.674 41.6928L122.247 43.8872L123.757 41.6928C123.882 41.5047 124.008 41.442 124.197 41.442C124.323 41.442 124.449 41.5047 124.574 41.6301C124.7 41.7555 124.763 41.8809 124.763 42.0063C124.763 42.1944 124.763 42.3198 124.7 42.3825Z" fill="#233A74"/>
<path d="M133.131 46.3323C132.88 46.8339 132.502 47.21 132.062 47.5235C131.621 47.837 131.055 47.9624 130.489 47.9624C129.922 47.9624 129.356 47.837 128.916 47.5235C128.475 47.21 128.098 46.8339 127.846 46.3323C127.595 45.8307 127.469 45.2665 127.469 44.7022C127.469 44.1379 127.595 43.5737 127.846 43.0721C128.098 42.5705 128.475 42.1944 128.916 41.8809C129.356 41.5674 129.922 41.442 130.489 41.442C131.055 41.442 131.621 41.5674 132.062 41.8809C132.502 42.1944 132.88 42.5705 133.131 43.0721C133.383 43.5737 133.509 44.1379 133.509 44.7022C133.509 45.2665 133.383 45.8307 133.131 46.3323ZM132.125 43.5737C131.936 43.2602 131.747 43.0094 131.432 42.8213C131.118 42.6332 130.803 42.5079 130.489 42.5079C130.111 42.5079 129.797 42.6332 129.482 42.8213C129.167 43.0094 128.979 43.2602 128.79 43.5737C128.601 43.8872 128.538 44.2633 128.538 44.7022C128.538 45.0784 128.601 45.4546 128.79 45.8307C128.979 46.1442 129.167 46.395 129.482 46.5831C129.797 46.7712 130.111 46.8966 130.489 46.8966C130.866 46.8966 131.181 46.7712 131.432 46.5831C131.684 46.395 131.936 46.1442 132.125 45.8307C132.313 45.5173 132.376 45.1411 132.376 44.7649C132.376 44.2633 132.25 43.8872 132.125 43.5737Z" fill="#233A74"/>
<path d="M141.814 41.6928C141.94 41.8182 141.94 41.9436 141.94 42.069V45.3292C141.94 45.8307 141.814 46.2696 141.625 46.6458C141.436 47.0219 141.122 47.3354 140.744 47.5235C140.367 47.7116 139.926 47.837 139.423 47.837C138.92 47.837 138.479 47.7116 138.102 47.5235C137.724 47.3354 137.41 47.0219 137.221 46.6458C137.032 46.2696 136.906 45.8307 136.906 45.3292V42.069C136.906 41.9436 136.969 41.7555 137.095 41.6928C137.221 41.5674 137.347 41.5047 137.535 41.5047C137.661 41.5047 137.787 41.5674 137.913 41.6928C138.039 41.8182 138.102 41.9436 138.102 42.069V45.3292C138.102 45.6426 138.165 45.8934 138.29 46.0815C138.416 46.3323 138.605 46.4577 138.794 46.5831C138.982 46.7085 139.234 46.7712 139.486 46.7712C139.737 46.7712 139.989 46.7085 140.241 46.5831C140.492 46.4577 140.618 46.2696 140.807 46.0815C140.933 45.8307 140.996 45.5799 140.996 45.3292V42.069C140.996 41.8809 141.059 41.7555 141.122 41.6928C141.185 41.5674 141.31 41.5674 141.499 41.5674C141.688 41.5674 141.688 41.5674 141.814 41.6928Z" fill="#233A74"/>
<path d="M155.529 47.3354C155.529 47.4608 155.466 47.6489 155.403 47.7116C155.278 47.837 155.215 47.837 155.026 47.837C154.9 47.837 154.837 47.7743 154.711 47.7116C154.648 47.6489 154.586 47.5862 154.523 47.4608L154.082 46.395H151.377L150.936 47.5235C150.873 47.6489 150.811 47.7116 150.748 47.7743C150.685 47.837 150.559 47.8997 150.433 47.8997C150.307 47.8997 150.181 47.837 150.056 47.7743C149.993 47.7116 149.93 47.5862 149.93 47.4608C149.93 47.3981 149.93 47.3354 149.93 47.2727L152.195 41.8809C152.258 41.7555 152.321 41.6928 152.383 41.6301C152.446 41.5674 152.572 41.5674 152.698 41.5674C152.824 41.5674 152.887 41.5674 153.013 41.6928C153.138 41.8182 153.201 41.8182 153.201 41.9436L155.403 47.21C155.466 47.21 155.529 47.2727 155.529 47.3354ZM151.817 45.3919H153.642L152.761 43.2602L151.817 45.3919Z" fill="#233A74"/>
<path d="M163.583 41.6928C163.708 41.8182 163.708 41.9436 163.708 42.069V47.2727C163.708 47.3981 163.645 47.5862 163.52 47.6489C163.394 47.7743 163.268 47.837 163.079 47.837C162.953 47.837 162.828 47.7743 162.702 47.6489C162.576 47.5235 162.513 47.3981 162.513 47.2727V45.2038H159.619V47.2727C159.619 47.3981 159.556 47.5862 159.43 47.6489C159.304 47.7743 159.178 47.837 159.053 47.837C158.864 47.837 158.738 47.7743 158.675 47.6489C158.549 47.5235 158.486 47.3981 158.486 47.2727V42.069C158.486 41.9436 158.549 41.7555 158.675 41.6928C158.801 41.5674 158.927 41.5047 159.115 41.5047C159.241 41.5047 159.367 41.5674 159.493 41.6928C159.619 41.8182 159.682 41.9436 159.682 42.069V44.1379H162.576V42.069C162.576 41.9436 162.639 41.7555 162.765 41.6928C162.89 41.5674 163.016 41.5047 163.142 41.5047C163.394 41.5047 163.52 41.5674 163.583 41.6928Z" fill="#233A74"/>
<path d="M171.447 46.9592C171.573 47.0846 171.636 47.21 171.636 47.3354C171.636 47.4608 171.573 47.5862 171.447 47.7116C171.321 47.837 171.195 47.837 171.07 47.837H167.987C167.861 47.837 167.672 47.7743 167.609 47.6489C167.483 47.5235 167.42 47.3981 167.42 47.2727V42.069C167.42 41.9436 167.483 41.7555 167.609 41.6928C167.735 41.5674 167.861 41.5047 167.987 41.5047H171.007C171.132 41.5047 171.321 41.5674 171.384 41.6301C171.447 41.6928 171.573 41.8809 171.573 42.0063C171.573 42.1317 171.51 42.2571 171.447 42.3824C171.321 42.4451 171.195 42.5078 171.07 42.5078H168.616V44.0125H170.629C170.755 44.0125 170.944 44.0752 171.007 44.1379C171.132 44.2633 171.195 44.3887 171.195 44.5141C171.195 44.6395 171.132 44.7649 171.07 44.8903C171.007 45.0157 170.818 45.0157 170.692 45.0157H168.616V46.7085H171.07C171.195 46.7712 171.321 46.8339 171.447 46.9592Z" fill="#233A74"/>
<path d="M180.004 47.3354C180.004 47.4608 179.941 47.6489 179.878 47.7116C179.752 47.837 179.689 47.837 179.501 47.837C179.375 47.837 179.312 47.7743 179.186 47.7116C179.123 47.6489 179.06 47.5862 178.997 47.4608L178.557 46.395H175.851L175.411 47.5235C175.348 47.6489 175.285 47.7116 175.222 47.7743C175.159 47.837 175.033 47.8997 174.908 47.8997C174.782 47.8997 174.656 47.837 174.53 47.7743C174.467 47.7116 174.404 47.5862 174.404 47.4608C174.404 47.3981 174.404 47.3354 174.404 47.2727L176.669 41.8809C176.732 41.7555 176.795 41.6928 176.858 41.6301C176.921 41.5674 177.047 41.5674 177.173 41.5674C177.298 41.5674 177.361 41.5674 177.487 41.6928C177.613 41.8182 177.676 41.8182 177.676 41.9436L179.878 47.21C179.941 47.21 180.004 47.2727 180.004 47.3354ZM176.229 45.3919H178.053L177.173 43.2602L176.229 45.3919Z" fill="#233A74"/>
<path d="M187.239 41.9436C187.617 42.1944 187.931 42.5705 188.183 43.0721C188.372 43.5737 188.498 44.0752 188.498 44.6395C188.498 45.2038 188.372 45.768 188.183 46.2069C187.994 46.6458 187.68 47.0847 187.239 47.3354C186.862 47.5862 186.359 47.7743 185.792 47.7743H183.653C183.527 47.7743 183.339 47.7116 183.276 47.5862C183.15 47.4608 183.087 47.3354 183.087 47.21V42.0063C183.087 41.8809 183.15 41.6928 183.276 41.6301C183.401 41.5047 183.527 41.442 183.653 41.442H185.792C186.359 41.5047 186.862 41.6928 187.239 41.9436ZM186.925 46.2069C187.176 45.8307 187.302 45.3292 187.302 44.7022C187.302 44.0752 187.176 43.5737 186.862 43.1975C186.61 42.8213 186.17 42.5705 185.666 42.5705H184.157V46.7712H185.666C186.233 46.7712 186.673 46.5831 186.925 46.2069Z" fill="#233A74"/>
<path d="M65.8736 27.837C65.8107 26.9592 65.6849 26.0815 65.4961 25.2665C64.6153 21.442 63.0424 18.558 61.9099 16.8652C60.9032 15.4859 59.8337 14.1693 58.5124 13.1034C55.8699 10.9718 52.9758 9.279 49.6412 8.46395C45.8033 7.46081 42.0283 7.58621 38.3163 8.58934C35.8625 9.279 33.5346 10.3448 31.5213 11.9749C29.9484 13.2288 28.3125 14.5455 27.18 16.2382C26.425 17.3668 25.6701 18.3699 25.0409 19.6238C24.6005 20.5643 24.0971 21.5674 23.7826 22.5705C23.0905 24.8276 22.5871 28.1505 23.0276 32.6646C23.1534 33.5423 23.3421 34.4828 23.5938 35.3605C23.6567 35.674 23.7826 35.9248 23.2792 35.8621C20.7626 35.7994 18.3088 35.674 15.8551 35.1097C15.7293 35.047 15.6034 34.9843 15.3518 34.8589C16.7359 33.605 18.3088 32.8527 19.8188 32.1003C20.1963 31.9122 20.6367 31.7241 21.0772 31.536C20.9513 30.3448 20.9513 28.4013 21.1401 25.9561C19.5672 26.4577 18.0572 27.21 16.6101 27.9624C14.2193 29.1536 11.8914 30.5329 10.4443 32.9154C9.68928 34.1066 9.62637 36.3636 10.5072 37.4295C11.4509 38.558 12.7093 39.373 14.1563 39.8119C15.7922 40.3135 17.428 40.5643 19.1267 40.7523C21.3288 40.9404 23.468 41.0031 25.6701 40.9404C26.0476 40.9404 26.2992 41.0658 26.488 41.3793C27.6834 42.9467 28.8788 44.4514 30.4517 45.7053C33.4717 48.2132 36.8692 49.8433 40.6442 50.5956C43.2237 51.0972 45.8662 51.0345 48.5087 50.4702C49.767 50.2194 50.7737 48.7774 50.522 47.5862C50.1445 46.0815 49.2008 45.2038 47.565 45.4545C44.6079 45.8934 41.7137 45.8307 38.8196 44.7649C36.3658 43.8871 34.3525 42.3824 32.2763 40.5643C34.2896 40.3762 36.0513 40.1254 37.8129 39.8746C39.3858 39.6865 40.9587 39.4984 42.5317 39.185C47.1245 38.3699 51.7174 37.5549 56.1845 36.3009C57.9462 35.7994 59.7707 35.3605 61.5324 34.7962C63.0424 34.2947 64.6153 33.7931 66.1253 33.2288C66.1253 33.1034 66.1253 32.9781 66.1253 32.8527C66.2511 30.9718 66.0624 29.3417 65.8736 27.837ZM60.8403 28.7774C60.9032 29.4044 60.6516 29.6552 60.0853 29.8433C54.1712 31.6614 48.1941 32.9781 42.1542 34.0439C38.0646 34.7335 33.9121 35.2978 29.7596 35.5486C29.3192 35.6113 29.0675 35.4232 28.9417 34.9843C27.6834 31.6614 27.5575 28.2132 28.5013 24.7649C29.0046 23.0721 29.7596 21.5047 30.5775 20.2508C33.4717 16.1755 37.1208 13.7304 41.8396 13.0408C47.3762 12.2884 52.1579 13.7931 56.1216 17.8056C59.1416 20.8777 60.5887 24.5768 60.8403 28.7774Z" fill="#23418C"/>
</svg>
