<svg width="20" height="20" viewBox="0 0 65 59" fill="none" xmlns="http://www.w3.org/2000/svg">
<path id="Vector 2" d="M57.1887 14.3861C55.0218 12.4162 52.2209 10.692 49.6824 9.26414C47.0316 7.77306 44.1937 6.76784 41.3041 5.84216C36.4368 4.28294 31.3652 2.90277 26.2473 2.53056C23.1336 2.30411 19.9574 2.64997 17.0963 3.96559C12.457 6.09888 9.24872 10.0791 6.47709 14.2315C2.40424 20.3335 -0.242872 29.2083 3.9382 36.0219C6.99729 41.007 13.0397 44.0168 17.8028 47.0384C18.7907 47.6652 25.2736 51.7398 26.4129 52.4253C29.287 54.1548 32.3214 56.1042 35.6854 56.7194C41.3677 57.7585 47.0943 54.6317 51.5369 51.4098C56.1177 48.0876 60.0812 43.7007 61.6483 38.1634C62.6463 34.6373 63.3465 30.0949 62.8295 26.4182C62.6018 24.7992 61.6757 23.3685 60.9198 21.9586C59.8703 20.0011 58.8485 18.0314 57.8179 16.064C56.315 13.1947 54.6033 10.638 52.3538 8.29274C51.2459 7.13769 50.0503 5.95234 48.6669 5.12465C47.1305 4.20546 45.5423 4.00188 43.8761 3.45781" stroke="#00AEEF" stroke-width="3" stroke-linecap="round"/>
</svg>
